<svg width="24" height="28" viewBox="0 0 24 28" fill="none" xmlns="http://www.w3.org/2000/svg">
<path d="M23.0533 21.4313C22.6374 22.3921 22.1451 23.2765 21.5748 24.0896C20.7973 25.198 20.1608 25.9653 19.6702 26.3914C18.9097 27.0907 18.095 27.4489 17.2225 27.4693C16.5961 27.4693 15.8407 27.291 14.9614 26.9295C14.0792 26.5696 13.2685 26.3914 12.5272 26.3914C11.7498 26.3914 10.916 26.5696 10.0241 26.9295C9.13092 27.291 8.41136 27.4795 7.86121 27.4981C7.02452 27.5338 6.19055 27.1654 5.35811 26.3914C4.8268 25.928 4.16224 25.1335 3.36612 24.0081C2.51195 22.8063 1.80971 21.4127 1.25955 19.8238C0.670361 18.1077 0.375 16.4458 0.375 14.837C0.375 12.994 0.773228 11.4045 1.57087 10.0725C2.19775 9.00256 3.03172 8.15858 4.0755 7.539C5.11928 6.91942 6.24708 6.60369 7.46162 6.58349C8.12619 6.58349 8.99767 6.78905 10.0807 7.19305C11.1606 7.59841 11.854 7.80397 12.158 7.80397C12.3853 7.80397 13.1556 7.56361 14.4615 7.08441C15.6964 6.64001 16.7387 6.45601 17.5925 6.52849C19.9062 6.71521 21.6444 7.62727 22.8004 9.27043C20.7311 10.5242 19.7076 12.2802 19.7279 14.533C19.7466 16.2876 20.3832 17.7478 21.6342 18.9072C22.2011 19.4453 22.8343 19.8612 23.5388 20.1565C23.386 20.5996 23.2247 21.0239 23.0533 21.4313ZM17.747 0.550645C17.747 1.92596 17.2445 3.21009 16.243 4.39866C15.0344 5.81164 13.5725 6.62813 11.9873 6.49929C11.9671 6.3343 11.9554 6.16064 11.9554 5.97817C11.9554 4.65787 12.5301 3.24488 13.5508 2.08958C14.0604 1.50463 14.7085 1.01825 15.4944 0.630256C16.2787 0.248051 17.0205 0.036684 17.7181 0.000488281C17.7385 0.184346 17.747 0.368216 17.747 0.550627V0.550645Z" fill="#CAFF33"/>
</svg>
