<svg width="23" height="28" viewBox="0 0 23 28" fill="none" xmlns="http://www.w3.org/2000/svg">
<path d="M13.6914 5.87815C13.7243 5.91664 13.7298 5.92764 13.7353 5.92764C14.2797 6.00462 14.5327 6.41154 14.8241 6.81845C15.1595 7.28035 15.561 7.70376 15.9899 8.08868C17.1171 9.10596 17.81 10.3377 18.0409 11.8389C18.4423 14.4673 16.9357 17.1672 14.4612 18.2175C10.7055 19.8122 6.50989 17.3872 6.07549 13.3291C5.84454 11.168 6.63637 9.3809 8.28601 7.9732C8.8194 7.5168 9.2648 6.98891 9.63322 6.38954C9.69921 6.27956 9.82018 6.19158 9.93566 6.13659C10.1226 6.04861 10.3316 5.99912 10.568 5.91664C10.491 5.82316 10.4361 5.75718 10.3756 5.69119C10.0071 5.31177 9.63872 4.92136 9.2648 4.55293C9.13283 4.42096 9.07234 4.28349 9.07784 4.09653C9.08884 3.3157 9.08334 2.54037 9.08334 1.75953C9.08334 1.4461 9.46826 0.945707 9.78169 0.88522C10.1391 0.813735 10.5075 0.775243 10.865 0.703759C10.9694 0.681763 11.0849 0.615777 11.1454 0.533295C11.6678 -0.170554 12.5861 -0.176053 13.103 0.522297C13.1745 0.615777 13.3119 0.687262 13.4274 0.714756C13.7573 0.786241 14.0928 0.824733 14.4282 0.88522C14.7636 0.951206 15.121 1.38561 15.121 1.72654C15.121 2.51287 15.1155 3.3047 15.1265 4.09103C15.132 4.29449 15.0661 4.43196 14.9286 4.57493C14.5107 4.99834 14.1093 5.43275 13.6914 5.87815ZM11.3818 8.941C11.3654 9.00698 11.3489 9.04547 11.3544 9.07847C11.4258 9.44689 11.2554 9.60635 10.9144 9.74382C10.2656 10.0133 9.97415 10.5576 9.99065 11.256C10.0071 11.9488 10.3811 12.3778 11.0079 12.6032C11.2829 12.7022 11.5688 12.7737 11.8437 12.8672C12.0967 12.9496 12.3496 13.0321 12.5916 13.1311C12.795 13.2136 12.9105 13.373 12.8885 13.604C12.8665 13.8404 12.7181 13.9779 12.5091 14.0164C12.2947 14.0604 12.0637 14.0989 11.8602 14.0494C11.4643 13.9559 11.0849 13.7965 10.667 13.6535C10.48 13.9009 10.2656 14.1814 10.0071 14.5278C10.3976 14.6983 10.733 14.8742 11.0904 14.9952C11.2939 15.0612 11.3763 15.1492 11.3489 15.3581C11.3324 15.5066 11.3434 15.6606 11.3434 15.831C11.6568 15.831 11.9207 15.831 12.1847 15.831C12.5641 15.831 12.5806 15.831 12.5586 15.4406C12.5476 15.1987 12.6026 15.0667 12.8665 15.0337C13.004 15.0172 13.1415 14.9402 13.2679 14.8687C13.8508 14.5498 14.0928 14.0384 14.0818 13.3895C14.0708 12.7737 13.7628 12.3503 13.213 12.1028C12.9655 11.9928 12.7016 11.9104 12.4376 11.8224C12.1077 11.7124 11.7778 11.6134 11.4478 11.4924C11.2444 11.4155 11.1619 11.2505 11.1784 11.0305C11.1949 10.8216 11.3214 10.6786 11.5138 10.6456C11.7448 10.6071 11.9922 10.5851 12.2177 10.6236C12.4926 10.6731 12.7511 10.7996 13.0425 10.8986C13.224 10.6181 13.4109 10.3212 13.6309 9.97477C13.3779 9.8593 13.1635 9.71633 12.9325 9.67784C12.6081 9.62285 12.5091 9.47438 12.5476 9.16645C12.5586 9.09496 12.4596 8.95199 12.3991 8.94649C12.0692 8.93 11.7228 8.941 11.3818 8.941Z" fill="#CAFF33"/>
<path d="M11.679 27.9888C10.5077 27.9888 9.33097 27.9558 8.15973 27.9998C7.37339 28.0273 6.70254 27.7908 6.07017 27.3729C5.17387 26.7735 4.35454 26.0917 3.63969 25.2778C2.58392 24.0736 1.51715 22.8694 0.461376 21.6651C-0.401939 20.6753 -0.0115227 19.2126 1.22021 18.8112C1.36318 18.7617 1.52815 18.7452 1.67662 18.7452C2.65541 18.7397 3.63969 18.7342 4.61848 18.7507C4.75596 18.7507 4.92092 18.8222 5.0199 18.9157C5.69075 19.5646 6.35061 20.2299 7.00497 20.8953C7.13694 21.0273 7.25792 21.0547 7.44488 21.0273C7.84079 20.9668 8.24771 20.9118 8.64912 20.9118C10.5022 20.9008 12.3498 20.9063 14.2029 20.9063C14.8353 20.9063 15.3027 21.2307 15.4677 21.7696C15.7206 22.5834 15.1267 23.3478 14.2194 23.3533C12.9932 23.3588 11.7615 23.3533 10.5352 23.3533C10.3153 23.3533 10.0953 23.3478 9.87536 23.3533C9.47944 23.3643 9.221 23.6172 9.2155 23.9746C9.2155 24.3375 9.47394 24.6125 9.86436 24.6125C11.8164 24.618 13.7685 24.618 15.7206 24.6125C16.1165 24.6125 16.4025 24.3925 16.6774 24.1286C17.9531 22.9024 19.2289 21.6761 20.5101 20.4554C21.0325 19.955 21.7253 19.933 22.2202 20.3784C22.7536 20.8623 22.7646 21.6431 22.2257 22.1875C21.6593 22.7649 21.082 23.3093 20.5101 23.8646C19.2453 25.0909 17.9806 26.3116 16.7214 27.5379C16.4135 27.8348 16.0725 27.9888 15.6381 27.9888C14.3184 27.9833 12.9987 27.9888 11.679 27.9888Z" fill="#CAFF33"/>
<path d="M5.13576 4.75098C5.66915 5.28436 6.20253 5.81775 6.72492 6.34014C6.40049 6.66457 6.05956 7.00549 5.71864 7.34092C5.21274 6.81853 4.67936 6.26865 4.16797 5.74076C4.4704 5.43283 4.81133 5.08091 5.13576 4.75098Z" fill="#CAFF33"/>
<path d="M19.0203 4.75098C19.3448 5.07541 19.6802 5.42183 19.9936 5.73527C19.4712 6.25765 18.9269 6.80204 18.399 7.32442C18.08 7.00549 17.7446 6.65907 17.4092 6.32364C17.9316 5.81225 18.4705 5.28436 19.0203 4.75098Z" fill="#CAFF33"/>
<path d="M20.2846 13.4171C20.2846 12.9497 20.2791 12.5208 20.2901 12.0919C20.2901 12.0369 20.3946 11.9379 20.4495 11.9379C21.1204 11.9269 21.7858 11.9269 22.4566 11.9379C22.5116 11.9379 22.6161 12.0204 22.6161 12.0644C22.6271 12.5098 22.6216 12.9552 22.6216 13.4171C21.8352 13.4171 21.0764 13.4171 20.2846 13.4171Z" fill="#CAFF33"/>
<path d="M3.85461 13.4336C3.09577 13.4336 2.38642 13.4391 1.67157 13.4281C1.61659 13.4281 1.52861 13.3236 1.52311 13.2632C1.51211 12.8782 1.50661 12.4933 1.52311 12.1084C1.52311 12.0479 1.63308 11.9379 1.69357 11.9379C2.35343 11.9269 3.01329 11.9269 3.67315 11.9379C3.73363 11.9379 3.84361 12.0259 3.84361 12.0809C3.86011 12.5098 3.85461 12.9497 3.85461 13.4336Z" fill="#CAFF33"/>
</svg>
