<svg width="31" height="27" viewBox="0 0 31 27" fill="none" xmlns="http://www.w3.org/2000/svg">
<path d="M15.334 6.625C13.5736 6.625 12.1465 8.05209 12.1465 9.8125C12.1465 11.5729 13.5736 13 15.334 13C17.0944 13 18.5215 11.5729 18.5215 9.8125C18.5215 8.05209 17.0944 6.625 15.334 6.625Z" fill="#CAFF33"/>
<path fill-rule="evenodd" clip-rule="evenodd" d="M0.458984 2.90625C0.458984 1.43924 1.64823 0.25 3.11523 0.25H27.5527C29.0197 0.25 30.209 1.43924 30.209 2.90625V16.7188C30.209 18.1858 29.0197 19.375 27.5527 19.375H3.11523C1.64823 19.375 0.458984 18.1858 0.458984 16.7188V2.90625ZM10.0215 9.8125C10.0215 6.87849 12.4 4.5 15.334 4.5C18.268 4.5 20.6465 6.87849 20.6465 9.8125C20.6465 12.7465 18.268 15.125 15.334 15.125C12.4 15.125 10.0215 12.7465 10.0215 9.8125ZM24.8965 8.75C24.3097 8.75 23.834 9.2257 23.834 9.8125V9.82312C23.834 10.4099 24.3097 10.8856 24.8965 10.8856H24.9071C25.4939 10.8856 25.9696 10.4099 25.9696 9.82312V9.8125C25.9696 9.2257 25.4939 8.75 24.9071 8.75H24.8965ZM4.70898 9.8125C4.70898 9.2257 5.18468 8.75 5.77148 8.75H5.78211C6.36891 8.75 6.84461 9.2257 6.84461 9.8125V9.82312C6.84461 10.4099 6.36891 10.8856 5.78211 10.8856H5.77148C5.18468 10.8856 4.70898 10.4099 4.70898 9.82312V9.8125Z" fill="#CAFF33"/>
<path d="M1.52148 21.5C0.934682 21.5 0.458984 21.9757 0.458984 22.5625C0.458984 23.1493 0.934682 23.625 1.52148 23.625C9.17155 23.625 16.581 24.6481 23.6212 26.5644C25.3078 27.0235 27.0215 25.7738 27.0215 23.9864V22.5625C27.0215 21.9757 26.5458 21.5 25.959 21.5H1.52148Z" fill="#CAFF33"/>
</svg>
