<svg width="24" height="20" viewBox="0 0 24 20" fill="none" xmlns="http://www.w3.org/2000/svg">
<g id="briefcase.fill">
<g id="Group">
<path id="Vector" d="M10.5024 12.9515C9.82851 12.9515 9.43379 12.5721 9.43379 11.8914V11.1036C6.60356 10.9091 3.78295 10.3256 0.856445 9.2072V7.60259C4.45681 9.19749 8.06681 9.76156 11.9945 9.76156C15.9318 9.76156 19.5418 9.19749 23.1422 7.60259V9.2072C20.2157 10.3256 17.395 10.9091 14.5648 11.1036V11.8914C14.5648 12.5721 14.1701 12.9515 13.4962 12.9515H10.5024ZM3.83108 19.4186H20.1675C22.1602 19.4186 23.1422 18.4462 23.1422 16.4525V6.98991C23.1422 4.99624 22.1602 4.02373 20.1675 4.02373H3.83108C1.84799 4.02373 0.856445 4.99624 0.856445 6.98991V16.4525C0.856445 18.4462 1.84799 19.4186 3.83108 19.4186ZM7.11378 4.86982H8.6059V3.14846C8.6059 2.40934 9.03911 1.99117 9.78999 1.99117H14.2086C14.9595 1.99117 15.3831 2.40934 15.3831 3.14846V4.85036H16.8752V3.25544C16.8752 1.4271 15.9221 0.571289 14.1798 0.571289H9.80921C8.16308 0.571289 7.11378 1.4271 7.11378 3.25544V4.86982Z" fill="#B3B3B3"/>
</g>
</g>
</svg>
