<svg width="33" height="28" viewBox="0 0 33 28" fill="none" xmlns="http://www.w3.org/2000/svg">
<path d="M14.5459 18.1812C13.5913 18.1812 13.0321 17.6438 13.0321 16.6794V15.5634C9.0226 15.2878 5.02674 14.4612 0.880859 12.8768V10.6036C5.98138 12.863 11.0955 13.6621 16.6598 13.6621C22.2376 13.6621 27.3518 12.863 32.4523 10.6036V12.8768C28.3064 14.4612 24.3105 15.2878 20.301 15.5634V16.6794C20.301 17.6438 19.7419 18.1812 18.7872 18.1812H14.5459ZM5.09493 27.343H28.2382C31.0612 27.343 32.4523 25.9653 32.4523 23.1409V9.73562C32.4523 6.91126 31.0612 5.53353 28.2382 5.53353H5.09493C2.28555 5.53353 0.880859 6.91126 0.880859 9.73562V23.1409C0.880859 25.9653 2.28555 27.343 5.09493 27.343ZM9.74541 6.73216H11.8593V4.29357C11.8593 3.24649 12.473 2.65407 13.5367 2.65407H19.7964C20.8602 2.65407 21.4603 3.24649 21.4603 4.29357V6.7046H23.5741V4.44513C23.5741 1.85498 22.2239 0.642578 19.7556 0.642578H13.5639C11.2319 0.642578 9.74541 1.85498 9.74541 4.44513V6.73216Z" fill="#CAFF33"/>
</svg>
