<svg width="52" height="41" viewBox="0 0 52 41" fill="none" xmlns="http://www.w3.org/2000/svg">
<path d="M2.77687 18.588L2.77592 18.5908C1.59449 22.0839 1 25.4596 1 28.7155V37.8235C1 39.2043 2.11929 40.3235 3.5 40.3235H14.7689C16.1496 40.3235 17.2689 39.2042 17.2689 37.8235L17.2689 28.6066L17.2688 28.6024C17.234 24.4485 17.8963 20.6659 19.248 17.2481C20.4095 14.3554 21.7997 11.5612 23.4188 8.86555C24.1138 7.70842 23.8097 6.18607 22.6692 5.42611L16.6426 1.41017C15.7274 0.800325 14.4979 0.848889 13.6647 1.60861C11.4937 3.58802 9.50971 5.92541 7.71134 8.61766L7.71065 8.6187C5.63729 11.7394 3.9925 15.0628 2.77687 18.588ZM29.6564 18.588L29.6555 18.5908C28.4741 22.0839 27.8796 25.4596 27.8796 28.7155V37.8235C27.8796 39.2043 28.9989 40.3235 30.3796 40.3235H41.6484C43.0291 40.3235 44.1484 39.2042 44.1484 37.8235L44.1484 28.6066L44.1484 28.6024C44.1135 24.4487 44.7758 20.6662 46.1274 17.2486C47.289 14.3556 48.6792 11.5614 50.2984 8.86555C50.9933 7.70842 50.6893 6.18607 49.5488 5.42611L43.5221 1.41017C42.6069 0.800326 41.3775 0.848889 40.5442 1.60861C38.3733 3.58802 36.3893 5.92541 34.5909 8.61766L34.5902 8.6187C32.5169 11.7394 30.8721 15.0628 29.6564 18.588Z" fill="url(#paint0_linear_413_10857)" stroke="#CAFF33"/>
<defs>
<linearGradient id="paint0_linear_413_10857" x1="26.2059" y1="1" x2="26.2059" y2="39.8235" gradientUnits="userSpaceOnUse">
<stop stop-color="#CAFF33"/>
<stop offset="1" stop-color="#191919"/>
</linearGradient>
</defs>
</svg>
